<svg width="1000" height="1000" viewBox="0 0 1000 1000" fill="none" xmlns="http://www.w3.org/2000/svg">
<rect width="1000" height="1000" fill="#020817"/>
<path d="M310.236 377.273H397.061V661.364C397.061 683.854 392.445 701.728 383.212 714.986C374.097 728.243 361.195 737.772 344.505 743.572C327.814 749.373 308.105 752.273 285.378 752.273C282.301 752.273 279.4 752.214 276.678 752.095C273.955 751.977 270.996 751.858 267.8 751.74V685.866C269.931 686.103 271.825 686.281 273.482 686.399C275.139 686.518 276.796 686.577 278.453 686.577C290.409 686.577 298.695 684.328 303.311 679.83C307.928 675.45 310.236 668.703 310.236 659.588V377.273ZM353.56 345.49C341.368 345.49 330.892 341.465 322.132 333.416C313.373 325.249 308.993 315.424 308.993 303.942C308.993 292.578 313.373 282.872 322.132 274.822C330.892 266.655 341.368 262.571 353.56 262.571C365.871 262.571 376.346 266.655 384.988 274.822C393.747 282.872 398.127 292.578 398.127 303.942C398.127 315.424 393.747 325.249 384.988 333.416C376.346 341.465 365.871 345.49 353.56 345.49ZM526.19 377.273L571.112 467.116L617.631 377.273H705.167L628.995 513.636L708.008 650H621.183L571.112 559.446L522.283 650H434.215L513.406 513.636L438.121 377.273H526.19Z" fill="#3B82F6"/>
</svg>
