<svg width="690" height="252" viewBox="0 0 690 252" fill="none" xmlns="http://www.w3.org/2000/svg">
<path d="M21.9659 59.3636H66.4205V204.818C66.4205 216.333 64.0568 225.485 59.3295 232.273C54.6629 239.061 48.0568 243.939 39.5114 246.909C30.9659 249.879 20.875 251.364 9.23864 251.364C7.66288 251.364 6.17803 251.333 4.78409 251.273C3.39015 251.212 1.875 251.152 0.238636 251.091V217.364C1.32955 217.485 2.29924 217.576 3.14773 217.636C3.99621 217.697 4.8447 217.727 5.69318 217.727C11.8144 217.727 16.0568 216.576 18.4205 214.273C20.7841 212.03 21.9659 208.576 21.9659 203.909V59.3636ZM44.1477 43.0909C37.9053 43.0909 32.5417 41.0303 28.0568 36.9091C23.572 32.7273 21.3295 27.697 21.3295 21.8182C21.3295 16 23.572 11.0303 28.0568 6.90909C32.5417 2.72726 37.9053 0.636353 44.1477 0.636353C50.4508 0.636353 55.8144 2.72726 60.2386 6.90909C64.7235 11.0303 66.9659 16 66.9659 21.8182C66.9659 27.697 64.7235 32.7273 60.2386 36.9091C55.8144 41.0303 50.4508 43.0909 44.1477 43.0909ZM132.534 59.3636L155.534 105.364L179.352 59.3636H224.17L185.17 129.182L225.625 199H181.17L155.534 152.636L130.534 199H85.4432L125.989 129.182L87.4432 59.3636H132.534Z" fill="#3B82F6"/>
<path d="M290.466 201C280.163 201 270.799 198.333 262.375 193C253.951 187.667 247.223 179.667 242.193 169C237.163 158.333 234.648 145.091 234.648 129.273C234.648 112.848 237.254 99.3333 242.466 88.7273C247.678 78.1212 254.496 70.2727 262.92 65.1818C271.405 60.0909 280.527 57.5455 290.284 57.5455C297.617 57.5455 303.89 58.8182 309.102 61.3636C314.314 63.8485 318.617 67.0606 322.011 71C325.405 74.9394 327.981 79.0303 329.739 83.2727H330.648V12.8182H375.102V199H331.102V176.364H329.739C327.86 180.667 325.193 184.697 321.739 188.455C318.284 192.212 313.951 195.242 308.739 197.545C303.587 199.848 297.496 201 290.466 201ZM305.92 166.364C311.314 166.364 315.92 164.848 319.739 161.818C323.557 158.727 326.496 154.394 328.557 148.818C330.617 143.242 331.648 136.697 331.648 129.182C331.648 121.545 330.617 114.97 328.557 109.455C326.557 103.939 323.617 99.697 319.739 96.7273C315.92 93.7576 311.314 92.2727 305.92 92.2727C300.405 92.2727 295.739 93.7879 291.92 96.8182C288.102 99.8485 285.193 104.121 283.193 109.636C281.254 115.152 280.284 121.667 280.284 129.182C280.284 136.697 281.284 143.242 283.284 148.818C285.284 154.394 288.163 158.727 291.92 161.818C295.739 164.848 300.405 166.364 305.92 166.364ZM468.489 201.636C453.883 201.636 441.277 198.758 430.67 193C420.125 187.182 412.004 178.909 406.307 168.182C400.67 157.394 397.852 144.576 397.852 129.727C397.852 115.303 400.701 102.697 406.398 91.9091C412.095 81.0606 420.125 72.6364 430.489 66.6364C440.852 60.5758 453.064 57.5455 467.125 57.5455C477.064 57.5455 486.155 59.0909 494.398 62.1818C502.64 65.2727 509.761 69.8485 515.761 75.9091C521.761 81.9697 526.428 89.4545 529.761 98.3636C533.095 107.212 534.761 117.364 534.761 128.818V139.909H413.398V114.091H493.398C493.337 109.364 492.216 105.152 490.034 101.455C487.852 97.7576 484.852 94.8788 481.034 92.8182C477.277 90.697 472.943 89.6364 468.034 89.6364C463.064 89.6364 458.61 90.7576 454.67 93C450.731 95.1818 447.61 98.1818 445.307 102C443.004 105.758 441.792 110.03 441.67 114.818V141.091C441.67 146.788 442.792 151.788 445.034 156.091C447.277 160.333 450.458 163.636 454.58 166C458.701 168.364 463.61 169.545 469.307 169.545C473.246 169.545 476.822 169 480.034 167.909C483.246 166.818 486.004 165.212 488.307 163.091C490.61 160.97 492.337 158.364 493.489 155.273L534.307 156.455C532.61 165.606 528.883 173.576 523.125 180.364C517.428 187.091 509.943 192.333 500.67 196.091C491.398 199.788 480.67 201.636 468.489 201.636ZM689.17 59.3636L641.261 199H590.352L542.534 59.3636H589.352L615.08 155.545H616.534L642.352 59.3636H689.17Z" fill="white"/>
</svg>
